<svg width="24" height="24" viewBox="0 0 24 24" fill="none" xmlns="http://www.w3.org/2000/svg">
<path d="M6.02154 19.2547C6.00738 19.172 6 19.0868 6 19C6 17.3431 7.34315 16 9 16H15C16.6569 16 18 17.3431 18 19C18 19.0971 17.9908 19.192 17.9732 19.284M6.02154 19.2547C5.76883 18.8802 5.49555 18.3916 5.1132 17.7081L3.65882 15.1081C3.02425 13.9737 2.70696 13.4065 2.58257 12.8058C2.47248 12.2742 2.47248 11.7258 2.58257 11.1942C2.70696 10.5935 3.02425 10.0263 3.65881 8.89189L5.1132 6.29189C5.78339 5.09379 6.11848 4.49474 6.59509 4.05853C7.01673 3.67263 7.51647 3.38059 8.0609 3.20194C8.6763 3 9.3663 3 10.7463 3H13.2317C14.6117 3 15.3017 3 15.9171 3.20194C16.4616 3.38059 16.9613 3.67263 17.3829 4.05853C17.8596 4.49474 18.1946 5.09379 18.8648 6.29189L20.3544 8.95471C20.9767 10.0673 21.2879 10.6235 21.4132 11.2132C21.5241 11.7352 21.5288 12.2739 21.4269 12.7977C21.3119 13.3895 21.0104 13.951 20.4075 15.074L19.9103 16L18.8805 17.7837C18.4987 18.4448 18.2247 18.9194 17.9732 19.284M6.02154 19.2547C6.2118 19.5367 6.39039 19.7541 6.59509 19.9415C7.01673 20.3274 7.51647 20.6194 8.0609 20.7981C8.6763 21 9.3663 21 10.7463 21H13.2903C14.6501 21 15.33 21 15.9382 20.8031C16.4763 20.629 16.9715 20.3441 17.3913 19.9671C17.5981 19.7814 17.7789 19.5655 17.9732 19.284M15 10C15 11.6569 13.6569 13 12 13C10.3431 13 9 11.6569 9 10C9 8.34315 10.3431 7 12 7C13.6569 7 15 8.34315 15 10Z" stroke="#111111" stroke-width="2" stroke-linecap="round" stroke-linejoin="round"/>
</svg>
